<svg width="41" height="38" viewBox="0 0 41 38" fill="none" xmlns="http://www.w3.org/2000/svg">
<g id="Hjerter">
<path id="Vector" d="M20.705 31.7227L20.5 31.9267L20.2745 31.7227C10.537 22.9301 4.1 17.116 4.1 11.2202C4.1 7.14015 7.175 4.08009 11.275 4.08009C14.432 4.08009 17.507 6.12013 18.5935 8.89459H22.4065C23.493 6.12013 26.568 4.08009 29.725 4.08009C33.825 4.08009 36.9 7.14015 36.9 11.2202C36.9 17.116 30.463 22.9301 20.705 31.7227ZM29.725 0C26.158 0 22.7345 1.65243 20.5 4.24329C18.2655 1.65243 14.842 0 11.275 0C4.961 0 0 4.9165 0 11.2202C0 18.9112 6.97 25.2149 17.5275 34.7419L20.5 37.4348L23.4725 34.7419C34.03 25.2149 41 18.9112 41 11.2202C41 4.9165 36.039 0 29.725 0Z" fill="#FA8637"/>
</g>
</svg>
