<svg width="65" height="87" viewBox="0 0 65 87" fill="none" xmlns="http://www.w3.org/2000/svg">
<g id="award-solid 1" clip-path="url(#clip0_84_367)">
<path id="Vector" d="M29.6618 1.5301C31.4951 0.303931 33.8951 0.303931 35.7285 1.5301L38.6951 3.49534C39.6951 4.15042 40.8618 4.46956 42.0451 4.40237L45.5951 4.18401C47.7951 4.04963 49.8618 5.25901 50.8451 7.24104L52.4451 10.4492C52.9785 11.5242 53.8451 12.3809 54.8951 12.9184L58.1118 14.5477C60.0785 15.5387 61.2785 17.6215 61.1451 19.8387L60.9285 23.4164C60.8618 24.609 61.1785 25.8016 61.8285 26.7926L63.7951 29.7824C65.0118 31.6301 65.0118 34.0489 63.7951 35.8965L61.8285 38.9031C61.1785 39.911 60.8618 41.0867 60.9285 42.2793L61.1451 45.8571C61.2785 48.0742 60.0785 50.1571 58.1118 51.1481L54.9285 52.7606C53.8618 53.2981 53.0118 54.1715 52.4785 55.2297L50.8618 58.4715C49.8785 60.4535 47.8118 61.6629 45.6118 61.5285L42.0618 61.3102C40.8785 61.243 39.6951 61.5621 38.7118 62.2172L35.7451 64.1992C33.9118 65.4254 31.5118 65.4254 29.6785 64.1992L26.6951 62.2172C25.6951 61.5621 24.5285 61.243 23.3451 61.3102L19.7951 61.5285C17.5951 61.6629 15.5285 60.4535 14.5451 58.4715L12.9451 55.2633C12.4118 54.1883 11.5451 53.3317 10.4951 52.7942L7.27848 51.1649C5.31181 50.1739 4.11181 48.091 4.24514 45.8739L4.46181 42.2961C4.52848 41.1035 4.21181 39.911 3.56181 38.9199L1.61181 35.9133C0.395144 34.0657 0.395144 31.6469 1.61181 29.7992L3.56181 26.8094C4.21181 25.8016 4.52848 24.6258 4.46181 23.4332L4.24514 19.8555C4.11181 17.6383 5.31181 15.5555 7.27848 14.5645L10.4618 12.952C11.5285 12.3977 12.3951 11.5242 12.9285 10.4492L14.5285 7.24104C15.5118 5.25901 17.5785 4.04963 19.7785 4.18401L23.3285 4.40237C24.5118 4.46956 25.6951 4.15042 26.6785 3.49534L29.6618 1.5301ZM46.0285 32.8563C46.0285 29.2924 44.6237 25.8745 42.1232 23.3545C39.6227 20.8345 36.2314 19.4188 32.6951 19.4188C29.1589 19.4188 25.7675 20.8345 23.2671 23.3545C20.7666 25.8745 19.3618 29.2924 19.3618 32.8563C19.3618 36.4201 20.7666 39.838 23.2671 42.358C25.7675 44.878 29.1589 46.2938 32.6951 46.2938C36.2314 46.2938 39.6227 44.878 42.1232 42.358C44.6237 39.838 46.0285 36.4201 46.0285 32.8563ZM0.911811 74.8149L8.09514 57.5981C8.12848 57.6149 8.14514 57.6317 8.16181 57.6653L9.76181 60.8735C11.7118 64.7703 15.7618 67.1387 20.0951 66.8867L23.6451 66.6684C23.6785 66.6684 23.7285 66.6684 23.7618 66.702L26.7285 68.684C27.5785 69.2383 28.4785 69.675 29.4118 69.9774L23.1451 84.977C22.7618 85.9008 21.9118 86.5223 20.9285 86.6063C19.9451 86.6903 18.9951 86.2367 18.4618 85.3969L13.0951 77.116L3.74514 78.5102C2.79514 78.6446 1.84514 78.2582 1.24514 77.5024C0.645144 76.7465 0.528477 75.7051 0.895144 74.8149H0.911811ZM42.2451 84.9602L35.9785 69.9774C36.9118 69.675 37.8118 69.2551 38.6618 68.684L41.6285 66.702C41.6618 66.6852 41.6951 66.6684 41.7451 66.6684L45.2951 66.8867C49.6285 67.1387 53.6785 64.7703 55.6285 60.8735L57.2285 57.6653C57.2451 57.6317 57.2618 57.6149 57.2951 57.5981L64.4951 74.8149C64.8618 75.7051 64.7285 76.7297 64.1451 77.5024C63.5618 78.275 62.5951 78.6614 61.6451 78.5102L52.2951 77.116L46.9285 85.3801C46.3951 86.2199 45.4451 86.6735 44.4618 86.5895C43.4785 86.5055 42.6285 85.8672 42.2451 84.9602Z" fill="#D0DCAE"/>
</g>
<defs>
<clipPath id="clip0_84_367">
<rect width="64" height="86" fill="white" transform="translate(0.695312 0.606262)"/>
</clipPath>
</defs>
</svg>
