<svg width="57" height="57" viewBox="0 0 57 57" fill="none" xmlns="http://www.w3.org/2000/svg">
<g id="carbon:dog-walker">
<path id="Vector" d="M35.625 35.625H39.1875V53.4375H35.625V35.625ZM7.125 40.9688H10.6875V53.4375H7.125V40.9688Z" fill="#D0DCAE"/>
<path id="Vector_2" d="M28.5 53.4375H24.9375V46.3125C24.9375 45.8401 24.7498 45.387 24.4158 45.053C24.0817 44.7189 23.6287 44.5313 23.1562 44.5313H19.5938V53.4375H16.0312V40.9688H23.1562C24.5731 40.9702 25.9314 41.5336 26.9333 42.5355C27.9351 43.5373 28.4986 44.8957 28.5 46.3125V53.4375ZM13.3594 39.1875C11.7065 39.1856 10.1219 38.5282 8.95309 37.3594C7.78433 36.1907 7.12689 34.606 7.125 32.9531V30.2813H3.5625V26.7188H10.6875V32.9531C10.6875 33.6618 10.969 34.3414 11.4701 34.8424C11.9711 35.3435 12.6508 35.625 13.3594 35.625C14.068 35.625 14.7476 35.3435 15.2487 34.8424C15.7498 34.3414 16.0312 33.6618 16.0312 32.9531V26.7188H23.1562V30.2813H19.5938V32.9531C19.5919 34.606 18.9344 36.1907 17.7657 37.3594C16.5969 38.5282 15.0123 39.1856 13.3594 39.1875ZM48.0938 17.8125H38.0368C36.9681 17.8099 35.9232 18.1289 35.0382 18.728C34.1532 19.3272 33.4689 20.1787 33.0743 21.1719L30.5057 27.5933L24.0807 35.6268L26.863 37.8533L33.4537 29.6133L36.3838 22.4954C36.5148 22.1642 36.7426 21.8801 37.0375 21.6802C37.3324 21.4804 37.6806 21.374 38.0368 21.375H48.0938C48.5662 21.375 49.0192 21.5627 49.3533 21.8967C49.6873 22.2308 49.875 22.6838 49.875 23.1563V35.625H44.5312V53.4375H48.0938V39.1875H49.875C50.8198 39.1875 51.726 38.8122 52.3941 38.1441C53.0622 37.476 53.4375 36.5698 53.4375 35.625V23.1563C53.4361 21.7394 52.8726 20.3811 51.8708 19.3792C50.8689 18.3774 49.5106 17.8139 48.0938 17.8125ZM42.75 16.0313C41.3408 16.0313 39.9633 15.6134 38.7916 14.8305C37.6199 14.0476 36.7066 12.9348 36.1674 11.6329C35.6281 10.3309 35.487 8.89835 35.7619 7.51623C36.0368 6.13412 36.7154 4.86457 37.7119 3.86812C38.7083 2.87167 39.9779 2.19308 41.36 1.91816C42.7421 1.64324 44.1747 1.78434 45.4766 2.32361C46.7785 2.86289 47.8913 3.77611 48.6742 4.94782C49.4571 6.11952 49.875 7.49706 49.875 8.90625C49.8726 10.7952 49.1212 12.6061 47.7855 13.9418C46.4498 15.2775 44.6389 16.0289 42.75 16.0313ZM42.75 5.34375C42.0454 5.34375 41.3566 5.55269 40.7708 5.94414C40.1849 6.3356 39.7283 6.89198 39.4587 7.54294C39.189 8.19391 39.1185 8.91021 39.256 9.60126C39.3934 10.2923 39.7327 10.9271 40.2309 11.4253C40.7292 11.9235 41.3639 12.2628 42.055 12.4003C42.746 12.5378 43.4623 12.4672 44.1133 12.1976C44.7643 11.9279 45.3207 11.4713 45.7121 10.8855C46.1036 10.2996 46.3125 9.61085 46.3125 8.90625C46.3125 7.96142 45.9372 7.05528 45.2691 6.38719C44.601 5.71909 43.6948 5.34375 42.75 5.34375Z" fill="#D0DCAE"/>
</g>
</svg>
