<svg width="56" height="56" viewBox="0 0 56 56" fill="none" xmlns="http://www.w3.org/2000/svg">
<g id="cil:dog">
<path id="Vector" d="M43.0172 17.6455L36.5894 8.36043C36.113 7.67369 35.4798 7.11037 34.7423 6.71715C34.0048 6.32394 33.1841 6.11214 32.3484 6.09932L20.1502 5.92432H20.125C13.8273 5.92432 8.99533 6.97771 5.88328 12.1187C2.98594 16.904 1.75 25.0556 1.75 39.375V41.125H5.74842L3.1745 54.25H6.74122L9.31514 41.125H10.5C13.3582 41.1505 16.1117 40.0508 18.1659 38.0634C20.023 36.2865 21.3625 33.8555 22.0398 31.0334L22.046 31.0081L25.0475 16.625H21.4721L18.6306 30.2409C17.7652 33.8153 15.1775 37.625 10.5 37.625H5.25656C5.35161 25.2365 6.47959 17.8917 8.87742 13.9307C10.8899 10.6057 13.8316 9.42541 20.1129 9.42377L32.2981 9.59877C32.5767 9.60304 32.8502 9.67364 33.0961 9.80472C33.3419 9.93579 33.553 10.1236 33.7118 10.3525L40.9828 20.8546L50.75 22.4825V24.3374L49.1212 33.024C48.6405 35.5879 47.8188 36.8794 44.4489 37.2842L30.6342 39.6477L30.5429 54.25H34.0429L34.1158 42.6023L44.9111 40.7539C47.3568 40.4532 49.1611 39.6651 50.4265 38.3451C51.5082 37.2166 52.1665 35.7748 52.5614 33.6691L54.25 24.6627V19.5176L43.0172 17.6455Z" fill="#D0DCAE"/>
</g>
</svg>
