<svg width="21" height="21" viewBox="0 0 21 21" fill="none" xmlns="http://www.w3.org/2000/svg">
<g id="Group">
<path id="Vector" d="M10.0039 1.99634H3.00391C2.47347 1.99634 1.96477 2.20705 1.58969 2.58212C1.21462 2.9572 1.00391 3.4659 1.00391 3.99634V17.9963C1.00391 18.5268 1.21462 19.0355 1.58969 19.4106C1.96477 19.7856 2.47347 19.9963 3.00391 19.9963H17.0039C17.5343 19.9963 18.043 19.7856 18.4181 19.4106C18.7932 19.0355 19.0039 18.5268 19.0039 17.9963V10.9963" stroke="#FA8637" stroke-width="2" stroke-linecap="round" stroke-linejoin="round"/>
<path id="Vector_2" d="M16.379 1.62132C16.7768 1.2235 17.3164 1 17.879 1C18.4416 1 18.9812 1.2235 19.379 1.62132C19.7768 2.01914 20.0003 2.55871 20.0003 3.12132C20.0003 3.68393 19.7768 4.2235 19.379 4.62132L10.366 13.6353C10.1285 13.8726 9.83521 14.0462 9.513 14.1403L6.64 14.9803C6.55395 15.0054 6.46274 15.0069 6.37591 14.9847C6.28908 14.9624 6.20983 14.9173 6.14645 14.8539C6.08307 14.7905 6.03789 14.7112 6.01564 14.6244C5.9934 14.5376 5.9949 14.4464 6.02 14.3603L6.86 11.4873C6.95453 11.1654 7.12853 10.8724 7.366 10.6353L16.379 1.62132Z" stroke="#FA8637" stroke-width="2" stroke-linecap="round" stroke-linejoin="round"/>
</g>
</svg>
