<svg width="66" height="66" viewBox="0 0 66 66" fill="none" xmlns="http://www.w3.org/2000/svg">
<g id="fluent:food-20-regular">
<path id="Vector" d="M15.4109 6.59997C13.3517 6.59997 11.5334 8.04537 11.1539 10.1244C10.6655 12.8238 9.8999 17.6286 9.8999 21.45C9.8999 25.5123 11.9987 29.0829 15.1634 31.1388C16.0577 31.7229 16.4999 32.4753 16.4999 33.1188V34.4718C16.4999 34.5312 16.4966 34.5906 16.49 34.65C16.4009 35.508 15.9917 39.3657 15.6056 43.3323C15.2261 47.2428 14.8499 51.4173 14.8499 52.8C14.8499 54.5504 15.5453 56.2291 16.783 57.4669C18.0207 58.7046 19.6995 59.4 21.4499 59.4C23.2003 59.4 24.8791 58.7046 26.1168 57.4669C27.3545 56.2291 28.0499 54.5504 28.0499 52.8C28.0499 51.414 27.6737 47.2428 27.2942 43.3323C27.0121 40.438 26.7173 37.545 26.4098 34.6533L26.3999 34.4718V33.1188C26.3999 32.472 26.8421 31.7196 27.7364 31.1388C29.3519 30.0906 30.6797 28.6552 31.599 26.963C32.5182 25.2709 32.9998 23.3757 32.9999 21.45C32.9999 17.6286 32.2343 12.8238 31.7459 10.1244C31.5624 9.13088 31.0355 8.23351 30.2573 7.58923C29.4791 6.94496 28.4992 6.59479 27.4889 6.59997C26.3669 6.59997 25.3439 7.01907 24.5717 7.70877C23.6893 6.99159 22.587 6.60005 21.4499 6.59997C20.2652 6.59997 19.1795 7.01577 18.3281 7.70877C17.5269 6.99233 16.4857 6.59741 15.4109 6.59997ZM19.7999 11.55C19.7999 11.1124 19.9737 10.6927 20.2832 10.3832C20.5926 10.0738 21.0123 9.89997 21.4499 9.89997C21.8875 9.89997 22.3072 10.0738 22.6166 10.3832C22.9261 10.6927 23.0999 11.1124 23.0999 11.55V21.45C23.0999 21.8876 23.2737 22.3073 23.5832 22.6167C23.8926 22.9261 24.3123 23.1 24.7499 23.1C25.1875 23.1 25.6072 22.9261 25.9166 22.6167C26.2261 22.3073 26.3999 21.8876 26.3999 21.45V10.989C26.3999 10.846 26.4281 10.7044 26.4828 10.5722C26.5375 10.4401 26.6177 10.3201 26.7189 10.2189C26.82 10.1178 26.94 10.0376 27.0722 9.98287C27.2043 9.92814 27.3459 9.89997 27.4889 9.89997C28.007 9.89997 28.4129 10.2564 28.4987 10.7151C28.9838 13.398 29.6999 17.9487 29.6999 21.45C29.7001 22.8262 29.3559 24.1806 28.6989 25.3898C28.0418 26.5991 27.0927 27.6247 25.9379 28.3734C24.4892 29.3139 23.0999 30.9672 23.0999 33.1188V34.4718C23.0999 34.6478 23.1087 34.8238 23.1263 34.9998C23.2187 35.8512 23.6246 39.699 24.0107 43.6524C24.4001 47.6619 24.7499 51.6219 24.7499 52.8C24.7499 53.6752 24.4022 54.5146 23.7834 55.1334C23.1645 55.7523 22.3251 56.1 21.4499 56.1C20.5747 56.1 19.7353 55.7523 19.1165 55.1334C18.4976 54.5146 18.1499 53.6752 18.1499 52.8C18.1499 51.6219 18.4997 47.6619 18.8891 43.6524C19.2752 39.699 19.6811 35.8512 19.7735 34.9998C19.7911 34.8238 19.7999 34.6478 19.7999 34.4718V33.1188C19.7999 30.9672 18.4106 29.3139 16.9619 28.3734C15.8071 27.6247 14.858 26.5991 14.2009 25.3898C13.5439 24.1806 13.1997 22.8262 13.1999 21.45C13.1999 17.952 13.916 13.398 14.4011 10.7151C14.4463 10.4813 14.5729 10.2712 14.7584 10.122C14.9438 9.97274 15.1762 9.89408 15.4142 9.89997C15.7025 9.90084 15.9786 10.016 16.1821 10.2201C16.3856 10.4242 16.4999 10.7007 16.4999 10.989V21.45C16.4999 21.8876 16.6737 22.3073 16.9832 22.6167C17.2926 22.9261 17.7123 23.1 18.1499 23.1C18.5875 23.1 19.0072 22.9261 19.3166 22.6167C19.6261 22.3073 19.7999 21.8876 19.7999 21.45V11.55ZM36.2999 21.45C36.2999 17.5115 37.8645 13.7344 40.6494 10.9494C43.4343 8.16452 47.2114 6.59997 51.1499 6.59997C51.5875 6.59997 52.0072 6.77381 52.3166 7.08325C52.6261 7.39268 52.7999 7.81236 52.7999 8.24997V31.2774L52.8659 32.0166C53.1231 34.9816 53.3739 37.9472 53.6183 40.9134C54.0275 45.8865 54.4499 51.3447 54.4499 52.8C54.4499 54.5504 53.7545 56.2291 52.5168 57.4669C51.2791 58.7046 49.6003 59.4 47.8499 59.4C46.0995 59.4 44.4207 58.7046 43.183 57.4669C41.9453 56.2291 41.2499 54.5504 41.2499 52.8C41.2499 51.348 41.6723 45.8865 42.0815 40.9134C42.2861 38.4021 42.494 35.9733 42.6491 34.1748L42.7481 33H41.2499C39.9371 33 38.678 32.4785 37.7497 31.5501C36.8214 30.6218 36.2999 29.3628 36.2999 28.05V21.45ZM46.1933 31.4952L46.124 32.3037L45.9359 34.4586C45.7808 36.2538 45.5729 38.676 45.3683 41.184C44.9525 46.2561 44.5499 51.5196 44.5499 52.8C44.5499 53.6752 44.8976 54.5146 45.5164 55.1334C46.1353 55.7523 46.9747 56.1 47.8499 56.1C48.7251 56.1 49.5645 55.7523 50.1834 55.1334C50.8022 54.5146 51.1499 53.6752 51.1499 52.8C51.1499 51.5196 50.7473 46.2561 50.3315 41.184C50.0867 38.2233 49.8348 35.2632 49.5758 32.3037L49.5065 31.4985V31.4952L49.4999 31.35V10.0155C46.7505 10.4123 44.2362 11.7868 42.4179 13.8869C40.5997 15.987 39.5992 18.6721 39.5999 21.45V28.05C39.5999 28.4876 39.7737 28.9073 40.0832 29.2167C40.3926 29.5261 40.8123 29.7 41.2499 29.7H44.5499C44.7788 29.7 45.0052 29.7477 45.2147 29.8399C45.4242 29.9322 45.6122 30.067 45.7668 30.2358C45.9213 30.4047 46.0391 30.6038 46.1125 30.8206C46.1859 31.0374 46.2134 31.2672 46.1933 31.4952Z" fill="#D0DCAE"/>
</g>
</svg>
