<svg width="59" height="59" viewBox="0 0 59 59" fill="none" xmlns="http://www.w3.org/2000/svg">
<g id="game-icons:soap">
<path id="Vector" d="M28.5781 1.72852C26.4924 1.72852 24.7754 3.4432 24.7754 5.53125C24.7754 7.6193 26.4924 9.33398 28.5781 9.33398C30.6639 9.33398 32.3809 7.6193 32.3809 5.53125C32.3809 3.4432 30.6639 1.72852 28.5781 1.72852ZM28.5781 3.80273C29.5461 3.80273 30.3066 4.56443 30.3066 5.53125C30.3066 6.49807 29.5461 7.25977 28.5781 7.25977C27.6102 7.25977 26.8496 6.49807 26.8496 5.53125C26.8496 4.56443 27.6102 3.80273 28.5781 3.80273ZM7.375 8.41211C5.28695 8.41211 3.57227 10.1268 3.57227 12.2148C3.57227 14.3006 5.28695 16.0176 7.375 16.0176C9.46305 16.0176 11.1777 14.3006 11.1777 12.2148C11.1777 10.1268 9.46305 8.41211 7.375 8.41211ZM7.375 10.4863C8.34182 10.4863 9.10352 11.248 9.10352 12.2148C9.10352 13.1828 8.34182 13.9434 7.375 13.9434C6.40818 13.9434 5.64648 13.1828 5.64648 12.2148C5.64648 11.248 6.40818 10.4863 7.375 10.4863ZM25.34 15.0611C22.7473 15.0611 20.6154 17.193 20.6154 19.7857C20.6154 22.3785 22.7473 24.5104 25.34 24.5104C27.9328 24.5104 30.0646 22.3785 30.0646 19.7857C30.0646 17.193 27.9328 15.0611 25.34 15.0611ZM25.34 17.1354C26.815 17.1354 27.9904 18.3107 27.9904 19.7857C27.9904 21.2607 26.815 22.4361 25.34 22.4361C23.865 22.4361 22.6896 21.2607 22.6896 19.7857C22.6896 18.3107 23.865 17.1354 25.34 17.1354ZM12.9062 18.668C12.4173 18.668 11.9483 18.8622 11.6025 19.208C11.2568 19.5538 11.0625 20.0227 11.0625 20.5117C11.0625 21.0007 11.2568 21.4697 11.6025 21.8154C11.9483 22.1612 12.4173 22.3555 12.9062 22.3555C13.3952 22.3555 13.8642 22.1612 14.21 21.8154C14.5557 21.4697 14.75 21.0007 14.75 20.5117C14.75 20.0227 14.5557 19.5538 14.21 19.208C13.8642 18.8622 13.3952 18.668 12.9062 18.668ZM38.6035 25.7434C38.0273 25.7664 37.382 26.0199 36.2988 26.5615L24.9943 32.2195C25.0059 32.3117 25.0059 32.4039 25.0059 32.4961C25.0059 35.6074 22.4707 38.1426 19.3594 38.1426C17.9881 38.1426 16.7436 37.6586 15.7641 36.8404L13.0676 38.1887C12.1227 38.7418 11.4243 39.1451 10.9922 39.6752C10.5566 40.2168 10.2559 40.9428 10.2559 42.4869V47.4535C10.2559 48.652 10.3238 49.1475 10.3918 49.2627C10.461 49.3895 10.7375 49.6084 11.7193 50.1154L20.7883 54.6557L20.8229 54.6672C22.7012 55.785 25.0635 55.6813 27.3566 54.5289L50.3229 43.1322C51.4176 42.5215 51.89 42.0836 52.1205 41.6688C52.351 41.2424 52.4316 40.6662 52.4316 39.583V35.135C52.4316 33.6715 52.4547 32.8533 52.3395 32.5537C52.2357 32.2426 52.0514 32.0236 50.9221 31.4705V31.459L41.1502 26.573L41.1387 26.5615C39.8826 25.9047 39.1912 25.7203 38.6035 25.7434ZM19.3594 28.9238C17.3773 28.9238 15.7871 30.5141 15.7871 32.4961C15.7871 34.4781 17.3773 36.0684 19.3594 36.0684C21.3414 36.0684 22.9316 34.4781 22.9316 32.4961C22.9316 30.5141 21.3414 28.9238 19.3594 28.9238ZM47.7992 32.8994L48.698 34.7662L30.952 43.2705H30.9404C28.9814 44.1693 27.4488 44.9875 25.7203 45.2986C24.0033 45.5982 22.1711 45.2525 20.0047 44.0311L20.0508 44.0656L15.0381 41.5996L15.96 39.7328L20.9957 42.2104L21.0187 42.2334C22.9316 43.3051 24.107 43.4664 25.3746 43.2475C26.6307 43.0285 28.0596 42.3025 30.0762 41.3807L47.7992 32.8994Z" fill="#D0DCAE"/>
</g>
</svg>
