<svg width="54" height="54" viewBox="0 0 54 54" fill="none" xmlns="http://www.w3.org/2000/svg">
<g id="grommet-icons:money">
<path id="Vector" d="M36 36C36 33.5137 28.9485 31.5 20.25 31.5M36 36C36 38.4863 28.9485 40.5 20.25 40.5C11.5515 40.5 4.5 38.4863 4.5 36M36 36V47.1083C36 49.671 28.9485 51.75 20.25 51.75C11.5515 51.75 4.5 49.6733 4.5 47.1083V36M36 36C44.604 36 51.75 33.7793 51.75 31.5V9M20.25 31.5C11.5515 31.5 4.5 33.5137 4.5 36M20.25 31.5C10.3095 31.5 2.25 29.2793 2.25 27V15.75M20.25 11.25C10.3095 11.25 2.25 13.2637 2.25 15.75M2.25 15.75C2.25 18.2363 10.3095 20.25 20.25 20.25C20.25 22.5293 27.5692 24.75 36.1732 24.75C44.7772 24.75 51.75 22.5293 51.75 20.25M51.75 9C51.75 6.51375 44.775 4.5 36.1732 4.5C27.5715 4.5 20.5965 6.51375 20.5965 9M51.75 9C51.75 11.4863 44.775 13.5 36.1732 13.5C27.5715 13.5 20.5965 11.4863 20.5965 9M20.5965 9V31.8735" stroke="#D0DCAE" stroke-width="3"/>
</g>
</svg>
