<svg width="86" height="76" viewBox="0 0 86 76" fill="none" xmlns="http://www.w3.org/2000/svg">
<g id="hand-holding-heart-solid 1" clip-path="url(#clip0_84_357)">
<path id="Vector" d="M24.8819 20.66C20.5434 16.2947 20.5434 9.20489 24.8819 4.83966C29.2205 0.474426 36.2448 0.474426 40.5833 4.83966L43.1953 7.47638L45.8073 4.83966C50.1458 0.474426 57.1701 0.474426 61.5087 4.83966C65.8472 9.20489 65.8472 16.2947 61.5087 20.66L46.5156 35.7772C45.6007 36.7 44.4054 37.1541 43.1953 37.1541C41.9852 37.1541 40.7899 36.7 39.875 35.7772L24.8819 20.66ZM84.5443 49.869C86.4774 52.4764 85.9167 56.1385 83.2899 58.0574L64.6076 71.7244C61.1545 74.244 56.9931 75.6063 52.6988 75.6063H29.0286H5.41753C2.80556 75.6063 0.695312 73.5115 0.695312 70.9188V61.5438C0.695312 58.951 2.80556 56.8563 5.41753 56.8563H10.8481L17.474 51.5828C20.8238 48.9168 24.9852 47.4813 29.2795 47.4813H40.8342H43.1953H52.6398C55.2517 47.4813 57.362 49.576 57.362 52.1688C57.362 54.7615 55.2517 56.8563 52.6398 56.8563H43.1953H40.8342C39.5356 56.8563 38.4731 57.9109 38.4731 59.2C38.4731 60.4891 39.5356 61.5438 40.8342 61.5438H58.6311L76.2951 48.6238C78.9219 46.7049 82.6111 47.2615 84.5443 49.869ZM29.2648 56.8563H29.1319C29.1762 56.8563 29.2205 56.8563 29.2648 56.8563Z" fill="#D0DCAE"/>
</g>
<defs>
<clipPath id="clip0_84_357">
<rect width="85" height="75" fill="white" transform="translate(0.695312 0.606262)"/>
</clipPath>
</defs>
</svg>
