<svg width="65" height="65" viewBox="0 0 65 65" fill="none" xmlns="http://www.w3.org/2000/svg">
<g id="ph:bone">
<path id="Vector" d="M58.8226 15.4603C57.306 13.6341 55.1354 12.4732 52.7745 12.2256C52.6246 10.8616 52.1696 9.54889 51.4431 8.38479C50.7167 7.22069 49.7375 6.23509 48.5781 5.50108C47.4188 4.76707 46.109 4.3035 44.7461 4.14475C43.3831 3.986 42.0019 4.13615 40.7049 4.58406C39.4079 5.03196 38.2284 5.76613 37.2538 6.73211C36.2793 7.69808 35.5347 8.87108 35.0753 10.1641C34.616 11.4571 34.4536 12.8369 34.6003 14.2012C34.747 15.5655 35.199 16.8793 35.9228 18.0451C35.9237 18.0518 35.9237 18.0587 35.9228 18.0654L18.0706 35.9303H18.0452C16.8794 35.2065 15.5657 34.7545 14.2013 34.6078C12.837 34.4611 11.4572 34.6235 10.1642 35.0828C8.8712 35.5422 7.69821 36.2868 6.73223 37.2613C5.76625 38.2359 5.03208 39.4154 4.58418 40.7124C4.13627 42.0094 3.98613 43.3906 4.14487 44.7536C4.30362 46.1165 4.76719 47.4263 5.5012 48.5856C6.23521 49.745 7.22081 50.7242 8.38491 51.4506C9.54901 52.1771 10.8617 52.6321 12.2257 52.782C12.3756 54.146 12.8306 55.4587 13.5571 56.6228C14.2835 57.7869 15.2627 58.7725 16.4221 59.5065C17.5814 60.2405 18.8912 60.7041 20.2541 60.8628C21.6171 61.0216 22.9983 60.8714 24.2953 60.4235C25.5923 59.9756 26.7718 59.2414 27.7464 58.2755C28.7209 57.3095 29.4655 56.1365 29.9249 54.8435C30.3842 53.5505 30.5466 52.1707 30.3999 50.8064C30.2532 49.442 29.8012 48.1283 29.0774 46.9625V46.9422L46.9398 29.0773H46.9651C48.8098 30.2392 51.0089 30.7035 53.1658 30.3865C55.3226 30.0695 57.2952 28.9921 58.7275 27.3486C60.1598 25.7051 60.9576 23.6039 60.9769 21.4239C60.9962 19.244 60.2357 17.1289 58.8327 15.4603H58.8226ZM55.631 24.6695C54.8367 25.579 53.7443 26.1757 52.5498 26.3525C51.3553 26.5293 50.1369 26.2747 49.1132 25.6344C48.3338 25.1398 47.4093 24.9254 46.4918 25.0265C45.5743 25.1276 44.7186 25.5381 44.0655 26.1904L26.1905 44.0654C25.5398 44.7197 25.1312 45.576 25.0319 46.4935C24.9327 47.4109 25.1488 48.3348 25.6446 49.1131C26.077 49.8085 26.3347 50.5982 26.3959 51.4147C26.4571 52.2313 26.3199 53.0506 25.996 53.8027C25.6721 54.5547 25.1711 55.2173 24.5358 55.734C23.9005 56.2506 23.1497 56.606 22.3474 56.7697C21.545 56.9334 20.715 56.9007 19.9281 56.6743C19.1411 56.448 18.4206 56.0346 17.8279 55.4696C17.2352 54.9046 16.788 54.2046 16.5243 53.4293C16.2606 52.6541 16.1883 51.8266 16.3136 51.0174C16.3591 50.7274 16.3412 50.431 16.2611 50.1486C16.1811 49.8662 16.0408 49.6045 15.8499 49.3816C15.6591 49.1586 15.4221 48.9796 15.1555 48.857C14.8888 48.7344 14.5987 48.671 14.3052 48.6713C14.2006 48.6722 14.0962 48.6806 13.9929 48.6967C13.1845 48.821 12.358 48.7482 11.5838 48.4845C10.8096 48.2207 10.1105 47.7739 9.54609 47.182C8.98165 46.5901 8.56853 45.8706 8.34187 45.0848C8.11522 44.2989 8.08174 43.4699 8.24427 42.6684C8.40681 41.8668 8.76056 41.1163 9.27543 40.4808C9.7903 39.8453 10.451 39.3436 11.2015 39.0183C11.9519 38.693 12.7698 38.5538 13.5856 38.6125C14.4014 38.6712 15.1909 38.9261 15.887 39.3554C16.6664 39.85 17.5909 40.0644 18.5084 39.9633C19.4259 39.8622 20.2816 39.4517 20.9347 38.7994L38.8097 20.9244C39.458 20.2708 39.865 19.4164 39.9642 18.5012C40.0634 17.586 39.8488 16.6642 39.3556 15.8869C38.9232 15.1915 38.6655 14.4018 38.6043 13.5852C38.5432 12.7686 38.6803 11.9494 39.0042 11.1973C39.3281 10.4452 39.8291 9.78261 40.4644 9.26598C41.0997 8.74934 41.8505 8.39401 42.6528 8.23027C43.4552 8.06653 44.2852 8.09924 45.0721 8.32562C45.8591 8.552 46.5796 8.96532 47.1723 9.53036C47.765 10.0954 48.2122 10.7954 48.4759 11.5706C48.7396 12.3459 48.8119 13.1734 48.6866 13.9826C48.6372 14.2986 48.6631 14.6219 48.7623 14.926C48.8614 15.2301 49.031 15.5066 49.2572 15.7328C49.4834 15.9589 49.7598 16.1285 50.0639 16.2277C50.368 16.3268 50.6913 16.3527 51.0073 16.3033C52.0414 16.136 53.1018 16.2925 54.0434 16.7515C54.985 17.2104 55.7617 17.9493 56.2669 18.8669C56.7721 19.7845 56.9812 20.8359 56.8656 21.877C56.7499 22.918 56.3151 23.8979 55.6208 24.6822L55.631 24.6695Z" fill="#D0DCAE"/>
</g>
</svg>
