<svg width="67" height="67" viewBox="0 0 67 67" fill="none" xmlns="http://www.w3.org/2000/svg">
<g id="ph:dog">
<path id="Vector" d="M62.7367 32.7148L58.4393 9.68358C58.3343 9.12219 58.1155 8.58821 57.7965 8.11448C57.4775 7.64075 57.0649 7.23728 56.5842 6.9289C56.1035 6.62051 55.5648 6.41372 55.0012 6.32125C54.4376 6.22877 53.861 6.25256 53.307 6.39116L53.2258 6.41472L39.4804 10.4687H27.5198L13.7743 6.4278L13.6932 6.40425C13.1392 6.26565 12.5626 6.24186 11.999 6.33433C11.4354 6.42681 10.8967 6.6336 10.416 6.94198C9.93524 7.25037 9.52269 7.65383 9.20367 8.12756C8.88465 8.60129 8.66592 9.13527 8.56091 9.69667L4.26349 32.7148C4.07972 33.6367 4.21613 34.5937 4.65016 35.4275C5.08418 36.2612 5.78983 36.9219 6.65036 37.3001C7.20157 37.5526 7.80024 37.6846 8.40649 37.6875C9.13213 37.6869 9.84432 37.4917 10.4688 37.1222V48.1562C10.4688 50.9327 11.5718 53.5955 13.5351 55.5588C15.4983 57.522 18.1611 58.625 20.9376 58.625H46.0626C48.8391 58.625 51.5018 57.522 53.4651 55.5588C55.4284 53.5955 56.5313 50.9327 56.5313 48.1562V37.1248C57.1551 37.4938 57.8663 37.689 58.5911 37.6901C59.198 37.6884 59.7976 37.5573 60.3498 37.3054C61.2114 36.9269 61.9178 36.2655 62.3519 35.4306C62.786 34.5957 62.9218 33.6375 62.7367 32.7148ZM8.37509 33.5L12.6751 10.4687L23.6856 13.7062L8.37509 33.5ZM46.0626 54.4375H35.5938V51.1163L39.1689 47.5438C39.5618 47.151 39.7825 46.6181 39.7825 46.0625C39.7825 45.5069 39.5618 44.974 39.1689 44.5812C38.776 44.1883 38.2432 43.9676 37.6876 43.9676C37.132 43.9676 36.5991 44.1883 36.2063 44.5812L33.5001 47.29L30.7939 44.5812C30.401 44.1883 29.8682 43.9676 29.3126 43.9676C28.757 43.9676 28.2241 44.1883 27.8313 44.5812C27.4384 44.974 27.2177 45.5069 27.2177 46.0625C27.2177 46.6181 27.4384 47.151 27.8313 47.5438L31.4063 51.1163V54.4375H20.9376C19.2717 54.4375 17.674 53.7757 16.4961 52.5978C15.3181 51.4198 14.6563 49.8221 14.6563 48.1562V32.2202L28.2448 14.6562H38.7528L52.3438 32.2202V48.1562C52.3438 49.8221 51.6821 51.4198 50.5041 52.5978C49.3261 53.7757 47.7285 54.4375 46.0626 54.4375ZM58.6251 33.5L43.3145 13.7062L54.3251 10.4687L58.6251 33.5ZM27.2188 36.6406C27.2188 37.2618 27.0346 37.869 26.6895 38.3855C26.3445 38.9019 25.854 39.3045 25.2801 39.5422C24.7062 39.7799 24.0747 39.8421 23.4655 39.7209C22.8563 39.5997 22.2967 39.3006 21.8575 38.8614C21.4182 38.4221 21.1191 37.8625 20.9979 37.2533C20.8768 36.6441 20.9389 36.0126 21.1767 35.4388C21.4144 34.8649 21.8169 34.3744 22.3334 34.0293C22.8498 33.6842 23.4571 33.5 24.0782 33.5C24.9112 33.5 25.71 33.8309 26.299 34.4199C26.888 35.0088 27.2188 35.8077 27.2188 36.6406ZM46.0626 36.6406C46.0626 37.2618 45.8784 37.869 45.5333 38.3855C45.1882 38.9019 44.6977 39.3045 44.1238 39.5422C43.5499 39.7799 42.9185 39.8421 42.3093 39.7209C41.7 39.5997 41.1404 39.3006 40.7012 38.8614C40.262 38.4221 39.9629 37.8625 39.8417 37.2533C39.7205 36.6441 39.7827 36.0126 40.0204 35.4388C40.2581 34.8649 40.6607 34.3744 41.1771 34.0293C41.6936 33.6842 42.3008 33.5 42.922 33.5C43.7549 33.5 44.5537 33.8309 45.1427 34.4199C45.7317 35.0088 46.0626 35.8077 46.0626 36.6406Z" fill="#D0DCAE"/>
</g>
</svg>
