<svg width="51" height="51" viewBox="0 0 51 51" fill="none" xmlns="http://www.w3.org/2000/svg">
<g id="ph:sun">
<path id="Vector" d="M23.9062 7.96875V3.1875C23.9062 2.76481 24.0742 2.35943 24.373 2.06055C24.6719 1.76166 25.0773 1.59375 25.5 1.59375C25.9227 1.59375 26.3281 1.76166 26.627 2.06055C26.9258 2.35943 27.0938 2.76481 27.0938 3.1875V7.96875C27.0938 8.39144 26.9258 8.79681 26.627 9.0957C26.3281 9.39459 25.9227 9.5625 25.5 9.5625C25.0773 9.5625 24.6719 9.39459 24.373 9.0957C24.0742 8.79681 23.9062 8.39144 23.9062 7.96875ZM38.25 25.5C38.25 28.0217 37.5022 30.4868 36.1012 32.5835C34.7002 34.6802 32.709 36.3144 30.3792 37.2795C28.0495 38.2445 25.4859 38.497 23.0126 38.005C20.5393 37.5131 18.2675 36.2987 16.4844 34.5156C14.7013 32.7325 13.4869 30.4607 12.995 27.9874C12.503 25.5141 12.7555 22.9505 13.7205 20.6208C14.6856 18.291 16.3198 16.2998 18.4165 14.8988C20.5132 13.4978 22.9783 12.75 25.5 12.75C28.8804 12.7537 32.1212 14.0982 34.5115 16.4885C36.9018 18.8788 38.2463 22.1196 38.25 25.5ZM35.0625 25.5C35.0625 23.6087 34.5017 21.7599 33.4509 20.1874C32.4002 18.6148 30.9067 17.3892 29.1594 16.6654C27.4121 15.9416 25.4894 15.7523 23.6344 16.1212C21.7795 16.4902 20.0756 17.401 18.7383 18.7383C17.401 20.0756 16.4902 21.7795 16.1212 23.6344C15.7523 25.4894 15.9416 27.4121 16.6654 29.1594C17.3892 30.9067 18.6148 32.4002 20.1874 33.4509C21.7599 34.5017 23.6087 35.0625 25.5 35.0625C28.0353 35.0599 30.4661 34.0515 32.2588 32.2588C34.0515 30.4661 35.0599 28.0353 35.0625 25.5ZM11.6224 13.8776C11.9215 14.1766 12.3271 14.3446 12.75 14.3446C13.1729 14.3446 13.5785 14.1766 13.8776 13.8776C14.1766 13.5785 14.3446 13.1729 14.3446 12.75C14.3446 12.3271 14.1766 11.9215 13.8776 11.6224L10.6901 8.43492C10.391 8.13587 9.98542 7.96786 9.5625 7.96786C9.13958 7.96786 8.73397 8.13587 8.43492 8.43492C8.13587 8.73397 7.96786 9.13958 7.96786 9.5625C7.96786 9.98542 8.13587 10.391 8.43492 10.6901L11.6224 13.8776ZM11.6224 37.1224L8.43492 40.3099C8.13587 40.609 7.96786 41.0146 7.96786 41.4375C7.96786 41.8604 8.13587 42.266 8.43492 42.5651C8.73397 42.8641 9.13958 43.0321 9.5625 43.0321C9.98542 43.0321 10.391 42.8641 10.6901 42.5651L13.8776 39.3776C14.0257 39.2295 14.1431 39.0537 14.2233 38.8602C14.3034 38.6668 14.3446 38.4594 14.3446 38.25C14.3446 38.0406 14.3034 37.8332 14.2233 37.6398C14.1431 37.4463 14.0257 37.2705 13.8776 37.1224C13.7295 36.9743 13.5537 36.8569 13.3602 36.7767C13.1668 36.6966 12.9594 36.6554 12.75 36.6554C12.5406 36.6554 12.3332 36.6966 12.1398 36.7767C11.9463 36.8569 11.7705 36.9743 11.6224 37.1224ZM38.25 14.3438C38.4594 14.3439 38.6667 14.3028 38.8602 14.2228C39.0536 14.1429 39.2295 14.0255 39.3776 13.8776L42.5651 10.6901C42.8641 10.391 43.0321 9.98542 43.0321 9.5625C43.0321 9.13958 42.8641 8.73397 42.5651 8.43492C42.266 8.13587 41.8604 7.96786 41.4375 7.96786C41.0146 7.96786 40.609 8.13587 40.3099 8.43492L37.1224 11.6224C36.8993 11.8453 36.7473 12.1294 36.6857 12.4387C36.6241 12.7481 36.6557 13.0687 36.7764 13.3601C36.8971 13.6514 37.1016 13.9004 37.3639 14.0756C37.6262 14.2507 37.9346 14.344 38.25 14.3438ZM39.3776 37.1224C39.0785 36.8234 38.6729 36.6554 38.25 36.6554C37.8271 36.6554 37.4215 36.8234 37.1224 37.1224C36.8234 37.4215 36.6554 37.8271 36.6554 38.25C36.6554 38.6729 36.8234 39.0785 37.1224 39.3776L40.3099 42.5651C40.458 42.7132 40.6338 42.8306 40.8273 42.9108C41.0207 42.9909 41.2281 43.0321 41.4375 43.0321C41.6469 43.0321 41.8543 42.9909 42.0477 42.9108C42.2412 42.8306 42.417 42.7132 42.5651 42.5651C42.7132 42.417 42.8306 42.2412 42.9108 42.0477C42.9909 41.8543 43.0321 41.6469 43.0321 41.4375C43.0321 41.2281 42.9909 41.0207 42.9108 40.8273C42.8306 40.6338 42.7132 40.458 42.5651 40.3099L39.3776 37.1224ZM9.5625 25.5C9.5625 25.0773 9.39459 24.6719 9.0957 24.373C8.79681 24.0742 8.39144 23.9062 7.96875 23.9062H3.1875C2.76481 23.9062 2.35943 24.0742 2.06055 24.373C1.76166 24.6719 1.59375 25.0773 1.59375 25.5C1.59375 25.9227 1.76166 26.3281 2.06055 26.627C2.35943 26.9258 2.76481 27.0938 3.1875 27.0938H7.96875C8.39144 27.0938 8.79681 26.9258 9.0957 26.627C9.39459 26.3281 9.5625 25.9227 9.5625 25.5ZM25.5 41.4375C25.0773 41.4375 24.6719 41.6054 24.373 41.9043C24.0742 42.2032 23.9062 42.6086 23.9062 43.0312V47.8125C23.9062 48.2352 24.0742 48.6406 24.373 48.9395C24.6719 49.2383 25.0773 49.4062 25.5 49.4062C25.9227 49.4062 26.3281 49.2383 26.627 48.9395C26.9258 48.6406 27.0938 48.2352 27.0938 47.8125V43.0312C27.0938 42.6086 26.9258 42.2032 26.627 41.9043C26.3281 41.6054 25.9227 41.4375 25.5 41.4375ZM47.8125 23.9062H43.0312C42.6086 23.9062 42.2032 24.0742 41.9043 24.373C41.6054 24.6719 41.4375 25.0773 41.4375 25.5C41.4375 25.9227 41.6054 26.3281 41.9043 26.627C42.2032 26.9258 42.6086 27.0938 43.0312 27.0938H47.8125C48.2352 27.0938 48.6406 26.9258 48.9395 26.627C49.2383 26.3281 49.4062 25.9227 49.4062 25.5C49.4062 25.0773 49.2383 24.6719 48.9395 24.373C48.6406 24.0742 48.2352 23.9062 47.8125 23.9062Z" fill="#D0DCAE"/>
</g>
</svg>
