<svg width="89" height="89" viewBox="0 0 89 89" fill="none" xmlns="http://www.w3.org/2000/svg">
<g id="pajamas:nature">
<path id="Vector" fill-rule="evenodd" clip-rule="evenodd" d="M83.0853 14.3563C83.1602 13.4415 83.1969 12.5241 83.1953 11.6063V6.10626H73.5703C66.4292 6.10507 59.4803 8.42039 53.767 12.7046C48.0537 16.9888 43.8843 23.0108 41.8848 29.8663C38.8028 25.8906 34.8512 22.6736 30.3332 20.4618C25.8152 18.2499 20.8507 17.1021 15.8203 17.1063H6.19531V22.6063C6.19531 31.3584 9.67209 39.7521 15.8608 45.9408C22.0495 52.1295 30.4432 55.6063 39.1953 55.6063H40.5703V78.9813C40.5703 80.0753 41.0049 81.1245 41.7785 81.8981C42.5521 82.6717 43.6013 83.1063 44.6953 83.1063C45.7893 83.1063 46.8385 82.6717 47.6121 81.8981C48.3857 81.1245 48.8203 80.0753 48.8203 78.9813V44.6063H50.1953C58.4722 44.6075 66.4474 41.4983 72.5394 35.8952C78.6315 30.2922 82.3956 22.6044 83.0853 14.3563ZM48.9688 36.3563C49.6453 30.3052 52.5286 24.7159 57.0673 20.6571C61.606 16.5984 67.4816 14.3551 73.5703 14.3563H74.7968C74.1203 20.4073 71.237 25.9967 66.6983 30.0554C62.1596 34.1141 56.2841 36.3574 50.1953 36.3563H48.9688ZM15.8203 25.3563C21.9091 25.3551 27.7846 27.5984 32.3233 31.6571C36.862 35.7159 39.7453 41.3052 40.4218 47.3563H39.1953C33.1066 47.3574 27.231 45.1141 22.6923 41.0554C18.1536 36.9967 15.2703 31.4073 14.5938 25.3563H15.8203Z" fill="#D0DCAE"/>
</g>
</svg>
