<svg width="47" height="47" viewBox="0 0 47 47" fill="none" xmlns="http://www.w3.org/2000/svg">
<g id="streamline:ball-solid" clip-path="url(#clip0_77_638)">
<path id="Vector" fill-rule="evenodd" clip-rule="evenodd" d="M4.4751 9.70214C1.55951 13.7113 -0.0074997 18.5428 2.69877e-05 23.5C-0.0074997 28.4572 1.55951 33.2887 4.4751 37.2978C6.67788 35.8157 8.45631 33.785 9.63503 31.4061C10.8668 28.9533 11.5028 26.2446 11.4915 23.5C11.4978 20.7559 10.862 18.0484 9.63503 15.5939C8.45631 13.2149 6.67788 11.1843 4.4751 9.70214ZM7.2481 6.52292C9.84924 8.37646 11.9545 10.8414 13.3782 13.7005C14.899 16.7051 15.688 20.0791 15.688 23.5C15.693 26.903 14.902 30.26 13.3782 33.3028C11.954 36.1607 9.84881 38.6245 7.2481 40.4771C11.097 44.1681 16.0898 46.436 21.4018 46.906V0.0939941C15.9297 0.577423 10.9947 2.93749 7.2481 6.52292ZM25.5982 46.9093C30.9107 46.4384 35.9035 44.1694 39.7519 40.4771C37.1508 38.6235 35.0456 36.1586 33.6218 33.2995C32.0986 30.2577 31.3076 26.9019 31.3121 23.5C31.3121 20.0757 32.101 16.7051 33.6218 13.6971C35.0451 10.8396 37.1491 8.37593 39.7486 6.52292C35.9014 2.83324 30.9112 0.565507 25.6016 0.0939941V46.906L25.5982 46.9093ZM47 23.5C47.0075 28.4572 45.4405 33.2887 42.525 37.2978C40.3222 35.8157 38.5437 33.785 37.365 31.4061C36.1333 28.9533 35.4972 26.2446 35.5085 23.5C35.5085 20.7203 36.1497 17.9943 37.365 15.5939C38.5437 13.2149 40.3222 11.1843 42.525 9.70214C45.4405 13.7113 47.0075 18.5428 47 23.5Z" fill="#D0DCAE"/>
</g>
<defs>
<clipPath id="clip0_77_638">
<rect width="47" height="47" fill="white"/>
</clipPath>
</defs>
</svg>
