<svg width="63" height="63" viewBox="0 0 63 63" fill="none" xmlns="http://www.w3.org/2000/svg">
<g id="tabler:bath">
<path id="Vector" d="M15.75 31.5V13.125C15.75 11.7326 16.3031 10.3973 17.2877 9.41269C18.2723 8.42812 19.6076 7.875 21 7.875H28.875V13.7812M10.5 55.125L13.125 51.1875M52.5 55.125L49.875 51.1875M10.5 31.5H52.5C53.1962 31.5 53.8639 31.7766 54.3562 32.2688C54.8484 32.7611 55.125 33.4288 55.125 34.125V42C55.125 44.7848 54.0188 47.4555 52.0496 49.4246C50.0805 51.3938 47.4098 52.5 44.625 52.5H18.375C15.5902 52.5 12.9195 51.3938 10.9504 49.4246C8.98125 47.4555 7.875 44.7848 7.875 42V34.125C7.875 33.4288 8.15156 32.7611 8.64384 32.2688C9.13613 31.7766 9.80381 31.5 10.5 31.5Z" stroke="#D0DCAE" stroke-width="3" stroke-linecap="round" stroke-linejoin="round"/>
</g>
</svg>
